<?xml version="1.0" encoding="UTF-8" standalone="no"?>
<!-- Created with Inkscape (http://www.inkscape.org/) -->

<svg
   width="210mm"
   height="297mm"
   viewBox="0 0 210 297"
   version="1.1"
   id="svg5"
   inkscape:version="1.2 (dc2aedaf03, 2022-05-15)"
   sodipodi:docname="clik_lezz.svg"
   xmlns:inkscape="http://www.inkscape.org/namespaces/inkscape"
   xmlns:sodipodi="http://sodipodi.sourceforge.net/DTD/sodipodi-0.dtd"
   xmlns="http://www.w3.org/2000/svg"
   xmlns:svg="http://www.w3.org/2000/svg">
  <sodipodi:namedview
     id="namedview7"
     pagecolor="#000000"
     bordercolor="#000000"
     borderopacity="0.25"
     inkscape:showpageshadow="2"
     inkscape:pageopacity="0"
     inkscape:pagecheckerboard="0"
     inkscape:deskcolor="#d1d1d1"
     inkscape:document-units="mm"
     showgrid="false"
     inkscape:zoom="0.914906"
     inkscape:cx="296.7518"
     inkscape:cy="562.35285"
     inkscape:window-width="1450"
     inkscape:window-height="1243"
     inkscape:window-x="3004"
     inkscape:window-y="1868"
     inkscape:window-maximized="0"
     inkscape:current-layer="g3426" />
  <defs
     id="defs2" />
  <g
     inkscape:label="Layer 1"
     inkscape:groupmode="layer"
     id="layer1">
    <g
       id="g3403"
       transform="matrix(1.0556295,0,0,0.84820796,-3.2336071,13.912159)">
      <g
         id="g3426"
         transform="matrix(0.87606065,0,0,1.0289192,5.0126755,11.669145)"
         inkscape:export-filename="clik_lezz_icon.png"
         inkscape:export-xdpi="212.06621"
         inkscape:export-ydpi="212.06621">
        <g
           id="g3450"
           inkscape:export-filename="clik_lezz_icon.png"
           inkscape:export-xdpi="260.09601"
           inkscape:export-ydpi="260.09601"
           transform="matrix(0.8153382,0,0,0.69420973,10.733939,28.026522)">
          <path
             style="fill:#2675bf;fill-opacity:1;stroke-width:0.366617"
             d="m 70.94815,107.03567 -11.760579,3.63191 1.413502,-4.79199 z"
             id="path3381" />
          <path
             style="fill:#2675bf;fill-opacity:1;stroke-width:0.366617"
             d="m 72.107195,103.77064 -9.543329,-7.773471 4.771665,-1.480661 z"
             id="path3379" />
          <path
             style="fill:#2675bf;fill-opacity:1;stroke-width:0.366617"
             d="m 77.00713,103.67578 4.403798,-11.493854 2.896968,4.070469 z"
             id="path3373" />
          <path
             style="fill:#2675bf;fill-opacity:1;stroke-width:0.22508"
             d="m 81.326285,162.61202 3.976387,8.67575 30.973968,2.89192 0.41856,-16.48393 5.44138,-2.31354 2.30212,-33.54625 -8.16206,-2.02434 -1.67428,18.79747 h -2.09283 l 0.83713,-23.42454 -8.16206,-1.73515 -0.62784,24.00292 h -4.604236 v -26.02726 l -7.952779,-1.73515 0.209284,26.89484 h -2.511402 l -3.093056,-23.50723 -4.174791,-6.56873 -8.162059,0.28919 3.998448,7.25007 2.850832,26.87457 -16.742683,-10.70009 -3.557821,9.54333 z"
             id="path1184"
             sodipodi:nodetypes="ccccccccccccccccccccccccc" />
          <path
             style="fill:#ffffff;fill-opacity:1;stroke-width:0.22508"
             d="m 78.637344,159.92308 3.976387,8.67575 30.973969,2.89192 0.41856,-16.48393 5.44138,-2.31354 2.30212,-33.54625 -8.16206,-2.02434 -1.67428,18.79747 h -2.09283 l 0.83713,-23.42454 -8.16206,-1.73515 -0.62784,24.00292 h -4.604241 v -26.02726 l -7.952775,-1.73515 0.209284,26.89484 h -2.511402 l -3.093056,-23.50723 -4.174791,-6.56873 -8.162059,0.28919 3.998448,7.25007 2.850832,26.87457 -16.742683,-10.70009 -3.557821,9.54333 z"
             id="path63"
             sodipodi:nodetypes="ccccccccccccccccccccccccc" />
          <path
             style="fill:#ffffff;fill-opacity:1;stroke-width:0.366617"
             d="M 73.165529,103.24147 63.6222,95.468002 68.393865,93.987341 Z"
             id="path1004" />
          <path
             style="fill:#ffffff;fill-opacity:1;stroke-width:0.366617"
             d="m 75.948796,103.14661 4.403798,-11.493851 2.896968,4.070469 z"
             id="path1006" />
          <path
             style="fill:#ffffff;fill-opacity:1;stroke-width:0.366617"
             d="m 70.418983,105.97733 -11.760579,3.63191 1.413502,-4.79199 z"
             id="path1008" />
        </g>
        <g
           id="g3602"
           inkscape:export-filename="clik_lezz_logo.png"
           inkscape:export-xdpi="212.06621"
           inkscape:export-ydpi="212.06621">
          <g
             id="g3648"
             inkscape:export-filename="clik_lezz_logo.png"
             inkscape:export-xdpi="99.113647"
             inkscape:export-ydpi="99.113647"
             transform="matrix(0.90069562,0,0,0.4559817,2.0392304,133.42228)">
            <g
               id="g3693"
               inkscape:export-filename="clik_lezz_logo.png"
               inkscape:export-xdpi="116.15329"
               inkscape:export-ydpi="116.15329">
              <g
                 id="g3810"
                 inkscape:export-filename="clik_lezz_logo.png"
                 inkscape:export-xdpi="99.937798"
                 inkscape:export-ydpi="99.937798">
                <text
                   xml:space="preserve"
                   style="font-size:33.0667px;fill:#2675bf;fill-opacity:1;stroke-width:2.75556"
                   x="25.806948"
                   y="201.6871"
                   id="text3633"
                   transform="scale(0.82507222,1.2120151)"
                   inkscape:export-filename="clik_lezz_icon.png"
                   inkscape:export-xdpi="99.937798"
                   inkscape:export-ydpi="99.937798"><tspan
                     id="tspan3631"
                     x="25.806948"
                     y="201.6871"
                     style="font-style:normal;font-variant:normal;font-weight:normal;font-stretch:normal;font-family:Impact;-inkscape-font-specification:Impact;fill:#2675bf;fill-opacity:1;stroke-width:2.75556"
                     sodipodi:role="line">clik less</tspan></text>
                <text
                   xml:space="preserve"
                   style="font-size:33.0667px;fill:#ffffff;fill-opacity:1;stroke-width:2.75556"
                   x="23.726412"
                   y="200.18626"
                   id="text3521"
                   transform="scale(0.82507222,1.2120151)"><tspan
                     id="tspan3519"
                     x="23.726412"
                     y="200.18626"
                     style="font-style:normal;font-variant:normal;font-weight:normal;font-stretch:normal;font-family:Impact;-inkscape-font-specification:Impact;stroke-width:2.75556"
                     sodipodi:role="line">clik less</tspan></text>
                <g
                   id="g3589"
                   inkscape:export-filename="clik_lezz_icon.png"
                   inkscape:export-xdpi="212.06621"
                   inkscape:export-ydpi="212.06621"
                   transform="matrix(0.39149301,0,0,0.481076,93.709098,160.42701)">
                  <path
                     style="fill:#2675bf;fill-opacity:1;stroke-width:0.366617"
                     d="m 70.94815,107.03567 -11.760579,3.63191 1.413502,-4.79199 z"
                     id="path3573" />
                  <path
                     style="fill:#2675bf;fill-opacity:1;stroke-width:0.366617"
                     d="m 72.107195,103.77064 -9.543329,-7.773471 4.771665,-1.480661 z"
                     id="path3575" />
                  <path
                     style="fill:#2675bf;fill-opacity:1;stroke-width:0.366617"
                     d="m 77.00713,103.67578 4.403798,-11.493854 2.896968,4.070469 z"
                     id="path3577" />
                  <path
                     style="fill:#2675bf;fill-opacity:1;stroke-width:0.22508"
                     d="m 81.326285,162.61202 3.976387,8.67575 30.973968,2.89192 0.41856,-16.48393 5.44138,-2.31354 2.30212,-33.54625 -8.16206,-2.02434 -1.67428,18.79747 h -2.09283 l 0.83713,-23.42454 -8.16206,-1.73515 -0.62784,24.00292 h -4.604236 v -26.02726 l -7.952779,-1.73515 0.209284,26.89484 h -2.511402 l -3.093056,-23.50723 -4.174791,-6.56873 -8.162059,0.28919 3.998448,7.25007 2.850832,26.87457 -16.742683,-10.70009 -3.557821,9.54333 z"
                     id="path3579"
                     sodipodi:nodetypes="ccccccccccccccccccccccccc" />
                  <path
                     style="fill:#ffffff;fill-opacity:1;stroke-width:0.22508"
                     d="m 78.637344,159.92308 3.976387,8.67575 30.973969,2.89192 0.41856,-16.48393 5.44138,-2.31354 2.30212,-33.54625 -8.16206,-2.02434 -1.67428,18.79747 h -2.09283 l 0.83713,-23.42454 -8.16206,-1.73515 -0.62784,24.00292 h -4.604241 v -26.02726 l -7.952775,-1.73515 0.209284,26.89484 h -2.511402 l -3.093056,-23.50723 -4.174791,-6.56873 -8.162059,0.28919 3.998448,7.25007 2.850832,26.87457 -16.742683,-10.70009 -3.557821,9.54333 z"
                     id="path3581"
                     sodipodi:nodetypes="ccccccccccccccccccccccccc" />
                  <path
                     style="fill:#ffffff;fill-opacity:1;stroke-width:0.366617"
                     d="M 73.165529,103.24147 63.6222,95.468002 68.393865,93.987341 Z"
                     id="path3583" />
                  <path
                     style="fill:#ffffff;fill-opacity:1;stroke-width:0.366617"
                     d="m 75.948796,103.14661 4.403798,-11.493851 2.896968,4.070469 z"
                     id="path3585" />
                  <path
                     style="fill:#ffffff;fill-opacity:1;stroke-width:0.366617"
                     d="m 70.418983,105.97733 -11.760579,3.63191 1.413502,-4.79199 z"
                     id="path3587" />
                </g>
              </g>
            </g>
          </g>
        </g>
      </g>
    </g>
  </g>
</svg>
